<?xml version="1.0" encoding="UTF-8" standalone="no"?>
<svg
   version="1.1"
   viewBox="-5.0 -10.0 110.0 135.0"
   id="svg2"
   sodipodi:docname="analytics.svg"
   inkscape:version="1.3.2 (091e20e, 2023-11-25, custom)"
   xmlns:inkscape="http://www.inkscape.org/namespaces/inkscape"
   xmlns:sodipodi="http://sodipodi.sourceforge.net/DTD/sodipodi-0.dtd"
   xmlns="http://www.w3.org/2000/svg"
   xmlns:svg="http://www.w3.org/2000/svg">
  <defs
     id="defs2" />
  <sodipodi:namedview
     id="namedview2"
     pagecolor="#ffffff"
     bordercolor="#000000"
     borderopacity="0.25"
     inkscape:showpageshadow="2"
     inkscape:pageopacity="0.0"
     inkscape:pagecheckerboard="0"
     inkscape:deskcolor="#d1d1d1"
     inkscape:zoom="4.2583542"
     inkscape:cx="55.772721"
     inkscape:cy="67.044682"
     inkscape:window-width="1920"
     inkscape:window-height="1009"
     inkscape:window-x="-8"
     inkscape:window-y="-8"
     inkscape:window-maximized="1"
     inkscape:current-layer="svg2" />
  <path
     d="m 77.26491,36.08311 c -0.679689,0.0039 -1.2266,0.55469 -1.2266,1.2344 v 15.527 c 0,0.32812 0.12891,0.64062 0.35938,0.87109 l 10.98,10.98 c 0.48047,0.48047 1.261701,0.48047 1.7422,0 3.1445,-3.1445 4.9102,-7.4062 4.9102,-11.852 0,-4.4492 -1.769499,-8.7109 -4.9102,-11.855 -3.144499,-3.1406 -7.4102,-4.9062 -11.855,-4.9062 z m 10.938001,25.957 -9.707,-9.707 v -13.73 c 5.3125,0.46094 9.9297,3.8438 11.969,8.7734 2.043,4.9258 1.171899,10.582 -2.261701,14.664 z m -12.312,-5.832 c -0.23047,-0.23047 -0.54688,-0.35938 -0.875,-0.35938 h -3.0312 v -1.7695 h 1.1992 l 0.0039,-0.0039 c 0.32812,0 0.64062,-0.12891 0.87109,-0.35938 0.23047,-0.23047 0.36328,-0.54688 0.36328,-0.875 v -15.523 c 0,-0.67969 -0.55469,-1.2344 -1.2344,-1.2344 -0.40234,0 -0.80469,0.01563 -1.1992,0.04297 l -0.0039,-7.0469 c 0,-0.32812 -0.12891,-0.64062 -0.35938,-0.87109 l -11.109,-11.105 c -0.23047,-0.23437 -0.54297,-0.36328 -0.87109,-0.36328 h -48.648 c -2.7773005,0.0039 -5.0273005,2.2539 -5.0273005,5.0312 v 71.461 c 0,2.7734 2.25,5.0234 5.0273005,5.0273 h 55.961 c 2.7773,-0.0039 5.0273,-2.2539 5.0273,-5.0273 v -19.664 c 1.0039,0.18359 2.019499,0.27344 3.0352,0.27344 4.4492,0.01172 8.7148,-1.7539 11.852,-4.9102 0.23047,-0.23047 0.36328,-0.54297 0.36328,-0.87109 0,-0.32812 -0.13281,-0.64062 -0.36328,-0.87109 z m -3.9414,-17.605 v 13.008 h -13.004 c 0.60938,-6.9141 6.093799,-12.398 13.008,-13.008 z m -11.07,-17.652 6.8945,6.8945 h -6.8945 z m 8.640599,72.281 c -0.0039,1.4141 -1.148399,2.5586 -2.5625,2.5586 H 10.996611 c -1.4141005,0 -2.5625005,-1.1445 -2.5625005,-2.5586 v -71.461 c 0,-1.4141 1.1484,-2.5586 2.5625005,-2.5586 h 47.418 v 9.8711 c 0,0.67969 0.55078,1.2305 1.230499,1.2305 h 9.8711 v 6.1758 h 0.0039 c -3.7148,0.83984 -7.0312,2.9141 -9.4102,5.8867 -2.3789,2.9688 -3.6797,6.6602 -3.6836,10.469 0,0.32422 0.12891,0.64062 0.36328,0.87109 0.23047,0.23047 0.54297,0.35938 0.871091,0.35938 h 11.859 v 1.7695 l -10.023,0.0039 c -0.32812,0 -0.64453,0.12891 -0.875,0.36328 -0.23047,0.23047 -0.35938,0.54297 -0.35938,0.87109 0.0039,3.4805 1.0898,6.875 3.1055,9.7109 2.0156,2.8359 4.8672,4.9766 8.1523,6.125 z m 5.503901,-21.859 h -0.0039 c -7.410201,-0.01172 -13.590001,-5.6758 -14.238,-13.062 h 13.73 l 9.707,9.7109 c -2.5703,2.1758 -5.832,3.3633 -9.1992,3.3516 z M 58.89501,65.70121 c 0,0.68359 -0.55469,1.2344 -1.2344,1.2344 h -36.492 c -0.67969,0 -1.2305,-0.55078 -1.2305,-1.2344 0,-0.67969 0.55078,-1.2344 1.2305,-1.2344 h 36.492 c 0.67969,0 1.2344,0.55469 1.2344,1.2344 z m 0,6.9648 c 0,0.68359 -0.55469,1.2344 -1.2344,1.2344 h -36.492 c -0.67969,0 -1.2305,-0.55078 -1.2305,-1.2344 0,-0.67969 0.55078,-1.2305 1.2305,-1.2305 h 36.492 c 0.67969,0 1.2344,0.55078 1.2344,1.2305 z m 0,6.9648 v 0.0039 c 0,0.67969 -0.55469,1.2305 -1.2344,1.2305 h -36.492 c -0.66797,-0.01953 -1.1992,-0.56641 -1.1992,-1.2344 0,-0.66406 0.53125,-1.2109 1.1992,-1.2305 h 36.492 c 0.67969,0 1.2344,0.55078 1.2344,1.2344 z m 0,6.9648 v 0.0039 c 0,0.67969 -0.55469,1.2305 -1.2344,1.2344 h -36.492 c -0.66797,-0.01953 -1.1992,-0.56641 -1.1992,-1.2344 0,-0.66797 0.53125,-1.2148 1.1992,-1.2344 h 36.492 c 0.67969,0 1.2344,0.55078 1.2344,1.2344 z m -33.465,-32.02 c 0.0039,-0.84375 -0.22656,-1.668 -0.66016,-2.3906 l 4.9883,-4.9648 h -0.0039 c 1.9688,1.375 4.6602,1.0156 6.2031,-0.82031 l 3.5039,2.3945 c -0.24219,1.2891 0.06641,2.6172 0.85547,3.6602 0.78516,1.0469 1.9766,1.7109 3.2773,1.832 1.3047,0.125 2.5977,-0.30859 3.5664,-1.1914 0.96484,-0.88281 1.5156,-2.1289 1.5156,-3.4375 0,-0.75781 -0.18359,-1.5 -0.53906,-2.168 l 5.9961,-8.4141 c 2.1992,0.76172 4.6289,-0.21875 5.6797,-2.2969 1.0547,-2.082 0.40625,-4.6211 -1.5156,-5.9414 -1.9219,-1.3203 -4.5234,-1.0156 -6.0898,0.71094 -1.5625,1.7266 -1.6094,4.3477 -0.10938,6.1289 l -5.6914,7.9883 v -0.0039 c -1.9102,-1.1406 -4.3594,-0.76562 -5.8398,0.89453 l -3.5664,-2.4336 h -0.0039 c 0.23047,-1.4492 -0.24219,-2.9219 -1.2695,-3.9688 -1.0234,-1.0508 -2.4844,-1.5508 -3.9414,-1.3555 -1.4531,0.19531 -2.7305,1.0664 -3.4414,2.3516 -0.71094,1.2812 -0.77734,2.8281 -0.17188,4.1641 l -5.1875,5.1641 c -1.8438,-0.98828 -4.1172,-0.625 -5.5586,0.88672 -1.4453,1.5117 -1.6992,3.8008 -0.625,5.5938 1.0703,1.793 3.207,2.6484 5.2227,2.0938 2.0156,-0.55859 3.4102,-2.3906 3.4062,-4.4805 z m 30.219,-22.074 c 0.88281,0 1.6758,0.53125 2.0156,1.3438 0.33594,0.8125 0.15234,1.75 -0.46875,2.375 -0.625,0.625 -1.5586,0.8125 -2.375,0.47656 -0.81641,-0.33203 -1.3477,-1.125 -1.3516,-2.0078 0,-1.207 0.97656,-2.1836 2.1797,-2.1875 z m -11.621,14.973 c 0.88281,-0.0039 1.6758,0.52734 2.0156,1.3438 0.33594,0.8125 0.15234,1.7539 -0.47266,2.375 -0.625,0.625 -1.5625,0.8125 -2.375,0.47266 -0.81641,-0.33594 -1.3477,-1.1328 -1.3477,-2.0117 0.0039,-1.2031 0.97656,-2.1758 2.1797,-2.1797 z m -11.621,-6.2461 c 0.88281,0 1.6758,0.53125 2.0156,1.3477 0.33594,0.8125 0.14844,1.75 -0.47266,2.375 -0.625,0.625 -1.5625,0.80859 -2.3789,0.47266 -0.8125,-0.33984 -1.3438,-1.1328 -1.3438,-2.0156 0.0039,-1.2031 0.97656,-2.1758 2.1797,-2.1797 z m -13.801,13.348 c 0,-0.88281 0.53125,-1.6758 1.3438,-2.0156 0.81641,-0.33594 1.7539,-0.14844 2.3789,0.47266 0.62109,0.625 0.80859,1.5625 0.47266,2.3789 -0.33984,0.8125 -1.1328,1.3438 -2.0156,1.3438 -1.2031,-0.0039 -2.1758,-0.97656 -2.1797,-2.1797 z"
     id="path1" />
</svg>
