<?xml version="1.0" encoding="UTF-8" standalone="no"?>
<svg
   version="1.1"
   viewBox="-5.0 -10.0 110.0 135.0"
   id="svg2"
   sodipodi:docname="analyticsdark.svg"
   inkscape:version="1.3.2 (091e20e, 2023-11-25, custom)"
   xmlns:inkscape="http://www.inkscape.org/namespaces/inkscape"
   xmlns:sodipodi="http://sodipodi.sourceforge.net/DTD/sodipodi-0.dtd"
   xmlns="http://www.w3.org/2000/svg"
   xmlns:svg="http://www.w3.org/2000/svg">
  <defs
     id="defs2" />
  <sodipodi:namedview
     id="namedview2"
     pagecolor="#000000"
     bordercolor="#000000"
     borderopacity="0.25"
     inkscape:showpageshadow="2"
     inkscape:pageopacity="0.0"
     inkscape:pagecheckerboard="0"
     inkscape:deskcolor="#d1d1d1"
     inkscape:zoom="6.0222223"
     inkscape:cx="49.898523"
     inkscape:cy="65.673431"
     inkscape:window-width="1920"
     inkscape:window-height="1009"
     inkscape:window-x="-8"
     inkscape:window-y="-8"
     inkscape:window-maximized="1"
     inkscape:current-layer="svg2" />
  <path
     d="m 77.26491,36.08311 c -0.679689,0.0039 -1.2266,0.55469 -1.2266,1.2344 v 15.527 c 0,0.32812 0.12891,0.64062 0.35938,0.87109 l 10.98,10.98 c 0.48047,0.48047 1.261701,0.48047 1.7422,0 3.1445,-3.1445 4.9102,-7.4062 4.9102,-11.852 0,-4.4492 -1.769499,-8.7109 -4.9102,-11.855 -3.144499,-3.1406 -7.4102,-4.9062 -11.855,-4.9062 z m 10.938001,25.957 -9.707,-9.707 v -13.73 c 5.3125,0.46094 9.9297,3.8438 11.969,8.7734 2.043,4.9258 1.171899,10.582 -2.261701,14.664 z m -12.312,-5.832 c -0.23047,-0.23047 -0.54688,-0.35938 -0.875,-0.35938 h -3.0312 v -1.7695 h 1.1992 l 0.0039,-0.0039 c 0.32812,0 0.64062,-0.12891 0.87109,-0.35938 0.23047,-0.23047 0.36328,-0.54688 0.36328,-0.875 v -15.523 c 0,-0.67969 -0.55469,-1.2344 -1.2344,-1.2344 -0.40234,0 -0.80469,0.01563 -1.1992,0.04297 l -0.0039,-7.0469 c 0,-0.32812 -0.12891,-0.64062 -0.35938,-0.87109 l -11.109,-11.105 c -0.23047,-0.23437 -0.54297,-0.36328 -0.87109,-0.36328 h -48.648 c -2.7773005,0.0039 -5.0273005,2.2539 -5.0273005,5.0312 v 71.461 c 0,2.7734 2.25,5.0234 5.0273005,5.0273 h 55.961 c 2.7773,-0.0039 5.0273,-2.2539 5.0273,-5.0273 v -19.664 c 1.0039,0.18359 2.019499,0.27344 3.0352,0.27344 4.4492,0.01172 8.7148,-1.7539 11.852,-4.9102 0.23047,-0.23047 0.36328,-0.54297 0.36328,-0.87109 0,-0.32812 -0.13281,-0.64062 -0.36328,-0.87109 z m -3.9414,-17.605 v 13.008 h -13.004 c 0.60938,-6.9141 6.093799,-12.398 13.008,-13.008 z m -11.07,-17.652 6.8945,6.8945 h -6.8945 z m 8.640599,72.281 c -0.0039,1.4141 -1.148399,2.5586 -2.5625,2.5586 H 10.996611 c -1.4141005,0 -2.5625005,-1.1445 -2.5625005,-2.5586 v -71.461 c 0,-1.4141 1.1484,-2.5586 2.5625005,-2.5586 h 47.418 v 9.8711 c 0,0.67969 0.55078,1.2305 1.230499,1.2305 h 9.8711 v 6.1758 h 0.0039 c -3.7148,0.83984 -7.0312,2.9141 -9.4102,5.8867 -2.3789,2.9688 -3.6797,6.6602 -3.6836,10.469 0,0.32422 0.12891,0.64062 0.36328,0.87109 0.23047,0.23047 0.54297,0.35938 0.871091,0.35938 h 11.859 v 1.7695 l -10.023,0.0039 c -0.32812,0 -0.64453,0.12891 -0.875,0.36328 -0.23047,0.23047 -0.35938,0.54297 -0.35938,0.87109 0.0039,3.4805 1.0898,6.875 3.1055,9.7109 2.0156,2.8359 4.8672,4.9766 8.1523,6.125 z m 5.503901,-21.859 h -0.0039 c -7.410201,-0.01172 -13.590001,-5.6758 -14.238,-13.062 h 13.73 l 9.707,9.7109 c -2.5703,2.1758 -5.832,3.3633 -9.1992,3.3516 z M 58.89501,65.70121 c 0,0.68359 -0.55469,1.2344 -1.2344,1.2344 h -36.492 c -0.67969,0 -1.2305,-0.55078 -1.2305,-1.2344 0,-0.67969 0.55078,-1.2344 1.2305,-1.2344 h 36.492 c 0.67969,0 1.2344,0.55469 1.2344,1.2344 z m 0,6.9648 c 0,0.68359 -0.55469,1.2344 -1.2344,1.2344 h -36.492 c -0.67969,0 -1.2305,-0.55078 -1.2305,-1.2344 0,-0.67969 0.55078,-1.2305 1.2305,-1.2305 h 36.492 c 0.67969,0 1.2344,0.55078 1.2344,1.2305 z m 0,6.9648 v 0.0039 c 0,0.67969 -0.55469,1.2305 -1.2344,1.2305 h -36.492 c -0.66797,-0.01953 -1.1992,-0.56641 -1.1992,-1.2344 0,-0.66406 0.53125,-1.2109 1.1992,-1.2305 h 36.492 c 0.67969,0 1.2344,0.55078 1.2344,1.2344 z m 0,6.9648 v 0.0039 c 0,0.67969 -0.55469,1.2305 -1.2344,1.2344 h -36.492 c -0.66797,-0.01953 -1.1992,-0.56641 -1.1992,-1.2344 0,-0.66797 0.53125,-1.2148 1.1992,-1.2344 h 36.492 c 0.67969,0 1.2344,0.55078 1.2344,1.2344 z m -33.465,-32.02 c 0.0039,-0.84375 -0.22656,-1.668 -0.66016,-2.3906 l 4.9883,-4.9648 h -0.0039 c 1.9688,1.375 4.6602,1.0156 6.2031,-0.82031 l 3.5039,2.3945 c -0.24219,1.2891 0.06641,2.6172 0.85547,3.6602 0.78516,1.0469 1.9766,1.7109 3.2773,1.832 1.3047,0.125 2.5977,-0.30859 3.5664,-1.1914 0.96484,-0.88281 1.5156,-2.1289 1.5156,-3.4375 0,-0.75781 -0.18359,-1.5 -0.53906,-2.168 l 5.9961,-8.4141 c 2.1992,0.76172 4.6289,-0.21875 5.6797,-2.2969 1.0547,-2.082 0.40625,-4.6211 -1.5156,-5.9414 -1.9219,-1.3203 -4.5234,-1.0156 -6.0898,0.71094 -1.5625,1.7266 -1.6094,4.3477 -0.10938,6.1289 l -5.6914,7.9883 v -0.0039 c -1.9102,-1.1406 -4.3594,-0.76562 -5.8398,0.89453 l -3.5664,-2.4336 h -0.0039 c 0.23047,-1.4492 -0.24219,-2.9219 -1.2695,-3.9688 -1.0234,-1.0508 -2.4844,-1.5508 -3.9414,-1.3555 -1.4531,0.19531 -2.7305,1.0664 -3.4414,2.3516 -0.71094,1.2812 -0.77734,2.8281 -0.17188,4.1641 l -5.1875,5.1641 c -1.8438,-0.98828 -4.1172,-0.625 -5.5586,0.88672 -1.4453,1.5117 -1.6992,3.8008 -0.625,5.5938 1.0703,1.793 3.207,2.6484 5.2227,2.0938 2.0156,-0.55859 3.4102,-2.3906 3.4062,-4.4805 z m 30.219,-22.074 c 0.88281,0 1.6758,0.53125 2.0156,1.3438 0.33594,0.8125 0.15234,1.75 -0.46875,2.375 -0.625,0.625 -1.5586,0.8125 -2.375,0.47656 -0.81641,-0.33203 -1.3477,-1.125 -1.3516,-2.0078 0,-1.207 0.97656,-2.1836 2.1797,-2.1875 z m -11.621,14.973 c 0.88281,-0.0039 1.6758,0.52734 2.0156,1.3438 0.33594,0.8125 0.15234,1.7539 -0.47266,2.375 -0.625,0.625 -1.5625,0.8125 -2.375,0.47266 -0.81641,-0.33594 -1.3477,-1.1328 -1.3477,-2.0117 0.0039,-1.2031 0.97656,-2.1758 2.1797,-2.1797 z m -11.621,-6.2461 c 0.88281,0 1.6758,0.53125 2.0156,1.3477 0.33594,0.8125 0.14844,1.75 -0.47266,2.375 -0.625,0.625 -1.5625,0.80859 -2.3789,0.47266 -0.8125,-0.33984 -1.3438,-1.1328 -1.3438,-2.0156 0.0039,-1.2031 0.97656,-2.1758 2.1797,-2.1797 z m -13.801,13.348 c 0,-0.88281 0.53125,-1.6758 1.3438,-2.0156 0.81641,-0.33594 1.7539,-0.14844 2.3789,0.47266 0.62109,0.625 0.80859,1.5625 0.47266,2.3789 -0.33984,0.8125 -1.1328,1.3438 -2.0156,1.3438 -1.2031,-0.0039 -2.1758,-0.97656 -2.1797,-2.1797 z"
     id="path1"
     style="display:inline;fill:#ffffff;fill-opacity:1"
     inkscape:label="path1" />
  <path
     style="display:inline;fill:#ffffff;fill-opacity:1;stroke-width:0.166052"
     d="m 86.88918,69.116353 -5.772944,-5.772944 v -8.182943 -8.182942 l 0.407581,-0.407581 c 0.49195,-0.49195 1.32956,-0.531948 3.431369,-0.163855 6.40643,1.121966 11.463532,5.645822 13.370972,11.96107 0.414208,1.371378 0.452304,1.733801 0.462539,4.400369 0.0098,2.552726 -0.03488,3.065017 -0.367615,4.215061 -0.787138,2.720603 -2.196268,5.298547 -3.890981,7.118385 -0.598899,0.643118 -0.83855,0.788325 -1.301049,0.788325 -0.523628,0 -1.007826,-0.4409 -6.339872,-5.772945 z m 7.229333,1.829218 c 0.979106,-1.483097 1.314013,-2.172721 1.874898,-3.860701 0.440884,-1.326837 0.468996,-1.580644 0.468996,-4.234317 0,-2.654102 -0.02805,-2.907266 -0.469197,-4.234317 -0.866152,-2.60556 -1.932369,-4.308433 -3.857537,-6.160933 -2.258376,-2.17313 -4.546465,-3.271958 -8.07202,-3.876493 l -0.622694,-0.106774 v 6.939143 6.939143 l 4.855955,4.858049 c 2.670776,2.671928 4.906735,4.858049 4.968798,4.858049 0.06206,0 0.445824,-0.504382 0.852801,-1.120849 z"
     id="path5"
     transform="translate(-5,-10)" />
  <path
     style="display:inline;fill:#ffffff;fill-opacity:1;stroke-width:0.166052"
     d="m 14.320382,107.86301 c -1.081746,-0.38726 -2.138328,-1.34794 -2.753106,-2.50323 l -0.441815,-0.83026 V 67.5 30.47048 l 0.443743,-0.840796 c 0.471514,-0.893416 1.422958,-1.852463 2.327703,-2.346305 C 14.419084,26.998356 15.713,26.98122 39.839988,26.93979 l 25.393491,-0.0436 5.629342,5.606335 c 3.096138,3.083485 5.735717,5.808114 5.865732,6.054732 0.183303,0.347694 0.236391,1.252028 0.236391,4.026753 v 3.578356 h 0.798948 c 0.57451,0 0.901036,0.09511 1.162361,0.338573 l 0.363414,0.338571 v 8.270379 c 0,9.457049 0.105888,8.820005 -1.466027,8.820005 h -0.858696 v 0.99631 0.99631 h 1.774886 1.774887 l 5.704074,5.687269 c 3.173989,3.164639 5.748537,5.863332 5.804317,6.084204 0.177504,0.702857 -0.167343,1.215779 -1.59343,2.370041 -1.602976,1.297436 -3.755102,2.416189 -5.909383,3.071912 -1.388156,0.42253 -1.709544,0.455465 -4.517979,0.462982 l -3.023513,0.0081 -0.04844,10.378228 -0.04844,10.37823 -0.46662,0.9504 c -0.488182,0.99431 -1.390495,1.8915 -2.415241,2.40151 -0.576822,0.28709 -1.976669,0.30287 -29.830316,0.33617 -24.137143,0.0289 -29.333774,-0.004 -29.849359,-0.18854 z m 59.084582,-2.42647 c 0.301118,-0.1861 0.702234,-0.65803 0.891372,-1.04873 0.336617,-0.69536 0.343885,-0.93071 0.343885,-11.134749 V 82.828687 L 74.266605,82.73276 C 73.36931,82.502378 70.89599,81.076699 69.632895,80.061779 65.975197,77.122755 63.748771,72.882645 63.40531,68.201681 63.304661,66.829965 63.32101,66.720631 63.684606,66.3336 l 0.386199,-0.411091 h 5.284707 5.284709 v -0.99631 -0.99631 h -6.226937 c -6.005536,0 -6.238745,-0.01181 -6.559041,-0.332103 -0.887299,-0.887299 0.07938,-5.72357 1.752405,-8.767272 0.81977,-1.49139 1.797155,-2.725295 3.249011,-4.101732 1.941143,-1.840304 3.641077,-2.855507 6.247927,-3.73127 l 1.453609,-0.488337 0.0451,-3.162337 0.0451,-3.162336 h -5.234214 c -5.012811,0 -5.248261,-0.01405 -5.566316,-0.332104 -0.318054,-0.318053 -0.332103,-0.553505 -0.332103,-5.565451 v -5.233348 l -24.119004,0.04423 c -22.528241,0.04132 -24.153734,0.06323 -24.64558,0.332318 -0.289617,0.158447 -0.700595,0.532063 -0.913284,0.830258 l -0.386708,0.542174 -0.04261,36.531908 c -0.04121,35.328483 -0.03245,36.551043 0.26595,37.112553 0.169709,0.31935 0.55487,0.74876 0.855913,0.95425 l 0.547352,0.37362 h 28.890345 c 28.778737,0 28.892461,-0.001 29.437831,-0.33837 z M 83.410719,81.031866 c 0.75966,-0.182115 1.936176,-0.587535 2.614482,-0.900931 1.176507,-0.54358 3.227566,-1.857859 3.227566,-2.068164 0,-0.05469 -2.18518,-2.285563 -4.855955,-4.95749 l -4.855957,-4.858049 h -6.935674 -6.935675 l 0.09989,0.70572 c 0.558425,3.945218 2.712822,7.506459 5.964919,9.860077 1.191185,0.862087 3.325301,1.835738 4.838692,2.207561 1.841873,0.452527 4.975565,0.457695 6.83771,0.01128 z M 76.964944,55.121627 v -6.649592 l -0.622694,0.105171 c -3.585249,0.605534 -6.454072,2.100819 -8.694783,4.531887 -1.217431,1.320856 -1.933398,2.449149 -2.723453,4.291887 -0.570687,1.331077 -1.158294,3.753221 -1.006493,4.148807 0.06881,0.179306 1.317939,0.22143 6.566198,0.22143 h 6.481225 z M 72.813653,37.816783 c 0,-0.02365 -1.569189,-1.61085 -3.487085,-3.527115 l -3.487085,-3.484119 v 3.527114 3.527115 h 3.487085 c 1.917896,0 3.487085,-0.01935 3.487085,-0.04299 z"
     id="path6"
     transform="translate(-5,-10)" />
</svg>
