<?xml version="1.0" encoding="UTF-8" standalone="no"?>
<svg
   version="1.1"
   x="0px"
   y="0px"
   viewBox="0 0 48 60"
   enable-background="new 0 0 48 48"
   xml:space="preserve"
   id="svg8"
   sodipodi:docname="logo.svg"
   inkscape:version="1.3.2 (091e20e, 2023-11-25, custom)"
   xmlns:inkscape="http://www.inkscape.org/namespaces/inkscape"
   xmlns:sodipodi="http://sodipodi.sourceforge.net/DTD/sodipodi-0.dtd"
   xmlns="http://www.w3.org/2000/svg"
   xmlns:svg="http://www.w3.org/2000/svg"><defs
     id="defs8" /><sodipodi:namedview
     id="namedview8"
     pagecolor="#ffffff"
     bordercolor="#000000"
     borderopacity="0.25"
     inkscape:showpageshadow="2"
     inkscape:pageopacity="0.0"
     inkscape:pagecheckerboard="0"
     inkscape:deskcolor="#d1d1d1"
     inkscape:zoom="9.5812969"
     inkscape:cx="21.134926"
     inkscape:cy="21.030556"
     inkscape:window-width="1920"
     inkscape:window-height="1009"
     inkscape:window-x="-8"
     inkscape:window-y="-8"
     inkscape:window-maximized="1"
     inkscape:current-layer="svg8" /><g
     id="g6"
     transform="translate(0,6)"
     style="fill:#2f324c;fill-opacity:1"><g
       id="g1"
       style="fill:#2f324c;fill-opacity:1"><path
         d="M 46,40 H 2 C 0.897,40 0,39.103 0,38 V 2 C 0,0.897 0.897,0 2,0 h 44 c 1.103,0 2,0.897 2,2 v 36 c 0,1.103 -0.897,2 -2,2 z M 2,2 V 38 H 46.001 L 46,2 Z"
         id="path1"
         style="fill:#2f324c;fill-opacity:1" /></g><g
       id="g2"
       style="fill:#2f324c;fill-opacity:1"><path
         d="M 30,48 H 18 V 38 H 30 Z M 20,46 h 8 v -6 h -8 z"
         id="path2"
         style="fill:#2f324c;fill-opacity:1" /></g><g
       id="g3"
       style="fill:#2f324c;fill-opacity:1"><path
         d="M 32,48 H 16 c -0.552,0 -1,-0.448 -1,-1 0,-0.552 0.448,-1 1,-1 h 16 c 0.552,0 1,0.448 1,1 0,0.552 -0.448,1 -1,1 z"
         id="path3"
         style="fill:#2f324c;fill-opacity:1" /></g><g
       id="g4"
       style="fill:#2f324c;fill-opacity:1"><path
         d="M 47,34 H 1 C 0.448,34 0,33.552 0,33 0,32.448 0.448,32 1,32 h 46 c 0.552,0 1,0.448 1,1 0,0.552 -0.448,1 -1,1 z"
         id="path4"
         style="fill:#2f324c;fill-opacity:1" /></g><g
       id="g5"
       style="fill:#2f324c;fill-opacity:1"><path
         d="m 27,19 h -6 c -0.552,0 -1,-0.448 -1,-1 0,-0.552 0.448,-1 1,-1 h 6 c 0.552,0 1,0.448 1,1 0,0.552 -0.448,1 -1,1 z"
         id="path5"
         style="fill:#2f324c;fill-opacity:1" /></g><path
       d="M 29.913,22.506 27.079,13.034 27.077,10.043 C 27.077,8.917 26.161,8 25.036,8 H 24 23.999 22.963 c -1.125,0 -2.041,0.917 -2.041,2.043 l -0.002,2.991 -2.834,9.472 c -0.29,0.97 0.167,1.996 1.086,2.44 1.609,0.777 3.196,1.046 4.625,1.046 0.069,0 0.134,-0.006 0.203,-0.007 0.068,0.001 0.133,0.007 0.203,0.007 1.429,0 3.017,-0.269 4.625,-1.046 0.918,-0.444 1.375,-1.47 1.085,-2.44 z m -5.914,1.483 c -1.233,0.016 -2.6,-0.214 -3.998,-0.91 l 2.834,-9.471 c 0.057,-0.19 0.086,-0.388 0.086,-0.587 L 22.962,10 l 1.036,0.021 v 0 H 23.999 24 v 0 L 25.036,10 l 0.041,3.021 c 0,0.199 0.029,0.396 0.086,0.587 l 2.834,9.471 c -1.397,0.695 -2.765,0.925 -3.998,0.91 z"
       id="path6"
       style="fill:#2f324c;fill-opacity:1" /></g><g
     id="g7"><rect
       fill="none"
       width="48"
       height="48"
       id="rect6" /></g></svg>
