<?xml version="1.0" encoding="UTF-8" standalone="no"?>
<svg
   version="1.1"
   viewBox="-5.0 -10.0 110.0 135.0"
   id="svg2"
   sodipodi:docname="planningdark.svg"
   inkscape:version="1.3.2 (091e20e, 2023-11-25, custom)"
   xmlns:inkscape="http://www.inkscape.org/namespaces/inkscape"
   xmlns:sodipodi="http://sodipodi.sourceforge.net/DTD/sodipodi-0.dtd"
   xmlns="http://www.w3.org/2000/svg"
   xmlns:svg="http://www.w3.org/2000/svg">
  <defs
     id="defs2" />
  <sodipodi:namedview
     id="namedview2"
     pagecolor="#000000"
     bordercolor="#000000"
     borderopacity="0.25"
     inkscape:showpageshadow="2"
     inkscape:pageopacity="0.0"
     inkscape:pagecheckerboard="0"
     inkscape:deskcolor="#d1d1d1"
     showgrid="false"
     inkscape:zoom="4.2583542"
     inkscape:cx="24.77483"
     inkscape:cy="57.181716"
     inkscape:window-width="1920"
     inkscape:window-height="1009"
     inkscape:window-x="-8"
     inkscape:window-y="-8"
     inkscape:window-maximized="1"
     inkscape:current-layer="svg2" />
  <path
     d="m 33.555166,30.732058 c -0.0039,0.59375 -0.49219,1.0742 -1.0859,1.0703 -0.59375,-0.0039 -1.0742,-0.49219 -1.0664,-1.0859 l 0.08594,-8.7109 c -0.0039,-0.60156 0.48047,-1.0898 1.0781,-1.0977 v -0.0039 h 7.3594 c 0.60938,0 1.1094,0.49609 1.1094,1.1055 0,0.61328 -0.5,1.1094 -1.1094,1.1094 h -6.2891 z m -11.121,11.844 h 17.676 c 0.01953,0.0039 0.03516,-0.0039 0.05078,-0.01563 v -0.0078 c 0.01172,-0.01172 0.01953,-0.02734 0.01953,-0.04297 v -5.6953 c 0,-0.01563 -0.0078,-0.03516 -0.01953,-0.04687 -0.01563,-0.01172 -0.03125,-0.01953 -0.05078,-0.01953 h -17.676 c -0.01563,-0.0039 -0.03516,0.0039 -0.04297,0.01953 -0.01563,0.01172 -0.02344,0.02734 -0.02344,0.04687 v 5.6953 c 0.0039,0.01953 0.01172,0.03516 0.02344,0.04688 0.01172,0.01172 0.02734,0.01953 0.04297,0.01953 z m 17.672,2.2188 h -17.672 c -0.59375,0 -1.1641,-0.24219 -1.5781,-0.67188 -0.41797,-0.42969 -0.65625,-1.0117 -0.65234,-1.6133 v -1.7031 h -3.6211 c -0.13281,0 -0.26172,0.05469 -0.35156,0.15234 -0.09766,0.09375 -0.15234,0.22656 -0.14844,0.36328 v 35.641 c 0,0.13672 0.05469,0.26562 0.14844,0.36328 0.08984,0.09375 0.21875,0.14844 0.35156,0.15234 h 29.387 c 0.13281,-0.0039 0.25781,-0.05859 0.35156,-0.15234 0.09375,-0.09766 0.14453,-0.22656 0.14844,-0.36328 v -35.641 c 0,-0.13672 -0.05469,-0.26562 -0.14844,-0.36328 -0.09375,-0.09766 -0.21875,-0.14844 -0.35156,-0.15234 h -3.625 v 1.7031 c 0,0.60156 -0.23437,1.1797 -0.65234,1.6094 h -0.0078 c -0.41406,0.42578 -0.98047,0.66797 -1.5781,0.67187 z m -19.902,-6.207 v -1.7734 c 0,-0.60156 0.23437,-1.1797 0.65625,-1.6094 0.41016,-0.42578 0.97656,-0.66797 1.5703,-0.66797 h 17.672 c 0.59375,0 1.1641,0.24219 1.5781,0.66797 0.42188,0.43359 0.65625,1.0117 0.65625,1.6133 v 1.7695 h 3.625 -0.0039 c 0.71094,0 1.3906,0.28906 1.8828,0.80078 0.50391,0.51562 0.78516,1.2109 0.78516,1.9336 v 35.641 c 0,0.71875 -0.28125,1.4141 -0.78516,1.9297 -0.49219,0.50781 -1.1719,0.79688 -1.8828,0.80078 h -29.375 c -0.71094,-0.0039 -1.3906,-0.29297 -1.8828,-0.80078 -0.50391,-0.51562 -0.78516,-1.207 -0.78516,-1.9297 v -35.641 c 0,-0.72266 0.28125,-1.418 0.78516,-1.9336 0.49219,-0.51172 1.1719,-0.80078 1.8828,-0.80078 z m 10.82,36.477 c -0.60156,-0.01563 -1.0742,-0.50781 -1.0742,-1.1055 0,-0.59766 0.47266,-1.0898 1.0742,-1.1094 h 11.309 c 0.59766,0.01953 1.0742,0.51172 1.0742,1.1094 0,0.59766 -0.47656,1.0898 -1.0742,1.1055 z m 0,-3.9805 c -0.60156,-0.01563 -1.0781,-0.50781 -1.0781,-1.1094 0,-0.60156 0.47656,-1.0938 1.0781,-1.1133 h 8.6133 -0.0039 c 0.60156,0.01953 1.0781,0.51172 1.0781,1.1133 0,0.60156 -0.47656,1.0938 -1.0781,1.1094 z m -10.016,1.168 c -0.36719,-0.48438 -0.28516,-1.1719 0.19141,-1.5547 0.22266,-0.17969 0.51172,-0.26172 0.80078,-0.22266 0.28516,0.03906 0.54297,0.1875 0.71484,0.42188 l 0.37891,0.49609 1.6172,-1.2773 c 0.22656,-0.179689 0.51562,-0.25781 0.80078,-0.21875 0.28516,0.03516 0.54297,0.1875 0.71484,0.41797 0.36328,0.48438 0.27734,1.1719 -0.19531,1.5508 l -2.4141,1.9062 c -0.01563,0.01563 -0.03516,0.02734 -0.05078,0.04297 -0.22656,0.17969 -0.51562,0.26172 -0.80078,0.22656 -0.28516,-0.03906 -0.54688,-0.1875 -0.71875,-0.42187 z m 10.016,-7.7695 c -0.57812,-0.04297 -1.0273,-0.52344 -1.0273,-1.1055 0,-0.57812 0.44922,-1.0625 1.0273,-1.1055 h 11.309 c 0.57422,0.04297 1.0234,0.52734 1.0234,1.1055 0,0.58203 -0.44922,1.0625 -1.0234,1.1055 z m 0,-3.9805 c -0.60156,-0.01953 -1.0781,-0.51172 -1.0781,-1.1094 0,-0.60156 0.47656,-1.0938 1.0781,-1.1133 h 8.6133 -0.0039 c 0.60156,0.01953 1.0781,0.51172 1.0781,1.1133 0,0.59766 -0.47656,1.0898 -1.0781,1.1094 z m -10.016,1.168 c -0.36719,-0.48438 -0.28516,-1.1719 0.19141,-1.5508 0.22266,-0.18359 0.51172,-0.26563 0.80078,-0.22656 0.28516,0.03516 0.54297,0.1875 0.71484,0.41797 l 0.37891,0.49609 1.6172,-1.2773 v 0.0039 c 0.22656,-0.17969 0.51562,-0.25781 0.80078,-0.22266 0.28516,0.03906 0.54297,0.19141 0.71484,0.42188 0.36328,0.48438 0.27734,1.168 -0.19531,1.5508 l -2.4141,1.9023 c -0.01563,0.01563 -0.03125,0.03125 -0.05078,0.04297 -0.22656,0.17969 -0.51562,0.26172 -0.80078,0.22266 -0.28516,-0.03516 -0.54688,-0.1875 -0.71875,-0.41797 z m 10.016,-7.7695 c -0.60156,-0.01953 -1.0742,-0.50781 -1.0742,-1.1094 0,-0.59766 0.47266,-1.0898 1.0742,-1.1055 h 11.309 c 0.59766,0.01563 1.0742,0.50781 1.0742,1.1055 0,0.60156 -0.47656,1.0898 -1.0742,1.1094 z m 0,-3.9805 v -0.0039 c -0.60156,-0.01562 -1.0742,-0.50781 -1.0742,-1.1055 0,-0.59769 0.47266,-1.0898 1.0742,-1.1094 h 8.6133 -0.0039 c 0.59766,0.01953 1.0742,0.51172 1.0742,1.1094 0,0.59768 -0.47656,1.0898 -1.0742,1.1055 z m -10.016,1.1719 c -0.36719,-0.48438 -0.28516,-1.1758 0.19141,-1.5547 0.22266,-0.18359 0.51172,-0.26172 0.79688,-0.22656 0.28906,0.03516 0.54688,0.1875 0.71875,0.41797 l 0.37891,0.49609 1.6172,-1.2773 v 0.0039 c 0.22656,-0.17969 0.51562,-0.26172 0.80078,-0.22266 0.28516,0.03906 0.54297,0.1875 0.71484,0.41797 0.36328,0.48828 0.27734,1.1719 -0.19531,1.5508 l -2.4141,1.9062 c -0.01563,0.01563 -0.03516,0.03125 -0.05078,0.04688 v 0.0039 c -0.22656,0.17969 -0.51562,0.25781 -0.80078,0.22266 -0.28906,-0.03906 -0.54688,-0.19141 -0.71875,-0.42188 z m 31.117,35.398 v -0.0039 c 0,-0.59375 0.48438,-1.082 1.082,-1.082 0.59762,0 1.082,0.488281 1.082,1.082 v 6.5078 c 0.0039,0.29297 -0.10938,0.570311 -0.30859,0.78125 -0.20312,0.20703 -0.48047,0.32812 -0.77344,0.33203 h -4.7891 c -0.60156,-0.01953 -1.0781,-0.511719 -1.0781,-1.113299 0,-0.601561 0.47656,-1.0898 1.0781,-1.1094 h 3.707 z m 1.0859,-4.9492 h -0.0039 c 2.9844,0 5.8359,1.2109 7.9102,3.3555 4.3672,4.515601 4.3672,11.68 0,16.195002 -2.0703,2.1445 -4.9258,3.3555 -7.9102,3.3555 -2.9805,0 -5.8359,-1.2109 -7.9102,-3.3555 -4.3711,-4.511702 -4.3711,-11.684001 0,-16.195001 2.0742,-2.1445 4.9297,-3.3555 7.9102,-3.3555 z m 6.375,4.9219 -0.0039,-0.0039 c -1.6719,-1.7266 -3.9727,-2.7031 -6.375,-2.7031 -2.4062,0 -4.707,0.97656 -6.3789,2.7031 -3.5195,3.6445 -3.5195,9.4258 0,13.066 1.6719,1.730502 3.9727,2.703102 6.3789,2.703102 2.4023,0 4.7031,-0.97266 6.375,-2.703102 3.5273,-3.6406 3.5273,-9.4219 0,-13.066 z m -6.3789,-69.746 c 1.3789,0 2.6992,0.55859 3.6562,1.5508 2.0234,2.0859 2.0234,5.4023 0,7.4883 -0.96094,0.99219 -2.2773,1.5508 -3.6562,1.5508 -1.3789,0 -2.6992,-0.55859 -3.6562,-1.5508 -2.0195,-2.0898 -2.0195,-5.4023 0,-7.4883 0.95703,-0.98828 2.2773,-1.5508 3.6562,-1.5508 z m 2.125,3.1172 c -0.55859,-0.57422 -1.3242,-0.90234 -2.125,-0.90234 -0.80469,0 -1.5703,0.32812 -2.1289,0.90234 -1.1719,1.2148 -1.1719,3.1406 0,4.3555 0.55859,0.57422 1.3242,0.89844 2.1289,0.89844 0.80078,0 1.5664,-0.32422 2.125,-0.89844 1.1758,-1.2148 1.1758,-3.1406 0,-4.3555 z m 2.7383,-6.7656 0.18359,-0.09766 c 0.37109,-0.19531 0.80078,-0.26172 1.2148,-0.19141 0.41797,0.0625 0.80469,0.26172 1.0977,0.57031 l 1.1016,1.125 h -0.0039 c 0.30078,0.30469 0.5,0.69531 0.55859,1.1211 0.06641,0.42578 0,0.85938 -0.1875,1.2461 l -0.08984,0.1875 -0.0039,0.0039 c -0.04687,0.08594 -0.07422,0.18359 -0.08203,0.28125 0.0039,0.10156 0.02734,0.19922 0.07812,0.28906 0.09766,0.19922 0.18359,0.39844 0.26172,0.58984 0.07813,0.19531 0.16016,0.41016 0.22656,0.61328 h -0.0039 c 0.02734,0.09375 0.07812,0.17969 0.14844,0.25391 0.07031,0.07031 0.15625,0.12109 0.25,0.15234 l 0.19531,0.0625 c 0.40234,0.13281 0.75391,0.39062 1,0.73437 0.24219,0.35156 0.375,0.76953 0.375,1.1992 v 1.5938 c 0.0039,0.42969 -0.12891,0.84766 -0.375,1.1992 -0.25,0.34766 -0.59766,0.60547 -1,0.74609 l -0.19531,0.0625 c -0.09375,0.02734 -0.17969,0.07813 -0.25,0.14453 -0.06641,0.07422 -0.11719,0.16016 -0.14844,0.25391 -0.06641,0.21094 -0.14453,0.41406 -0.22656,0.61328 -0.08203,0.19922 -0.16406,0.39453 -0.26172,0.59766 l 0.0039,-0.0039 c -0.05078,0.08984 -0.07422,0.1875 -0.07812,0.28906 0.0078,0.09766 0.03516,0.19531 0.07812,0.28516 l 0.09766,0.1875 c 0.1875,0.38281 0.25391,0.82031 0.1875,1.2422 -0.0625,0.42188 -0.25781,0.81641 -0.55859,1.1211 l -1.1016,1.125 h 0.0039 c -0.29688,0.30469 -0.67969,0.50391 -1.0977,0.57031 -0.41406,0.07031 -0.84375,0 -1.2148,-0.19922 l -0.18359,-0.09375 h -0.0039 c -0.08203,-0.04687 -0.17578,-0.07422 -0.27344,-0.07813 -0.09766,0.0039 -0.19531,0.03125 -0.28125,0.07422 -0.19531,0.09766 -0.38672,0.1875 -0.57812,0.27344 -0.19141,0.08594 -0.39844,0.15625 -0.59766,0.23047 h -0.0039 c -0.08984,0.02734 -0.17578,0.07813 -0.24219,0.14453 -0.07031,0.07422 -0.12109,0.16406 -0.14844,0.25781 l -0.0625,0.19922 c -0.12891,0.41016 -0.37891,0.76953 -0.72266,1.0273 -0.33984,0.25 -0.75,0.38672 -1.1719,0.38672 h -1.5547 c -0.42188,0.0039 -0.83203,-0.12891 -1.1758,-0.37891 -0.33984,-0.25781 -0.59375,-0.61719 -0.72656,-1.0273 l -0.0625,-0.19922 h 0.0039 c -0.02734,-0.09375 -0.07812,-0.18359 -0.14453,-0.25391 -0.07031,-0.07031 -0.15234,-0.12109 -0.24609,-0.14844 -0.20313,-0.07422 -0.40234,-0.14844 -0.59766,-0.23047 -0.19531,-0.08203 -0.38281,-0.17188 -0.58203,-0.27344 h -0.0039 c -0.08594,-0.04297 -0.17969,-0.07031 -0.27734,-0.07422 -0.09766,0.0039 -0.19531,0.03125 -0.27734,0.08203 l -0.17969,0.09375 c -0.375,0.19922 -0.80078,0.26562 -1.2188,0.19922 -0.41797,-0.07031 -0.80078,-0.27344 -1.0938,-0.57812 l -1.1016,-1.125 h 0.0078 c -0.30078,-0.30859 -0.49609,-0.69922 -0.56641,-1.1211 -0.06641,-0.42578 0,-0.85938 0.19531,-1.2422 l 0.08984,-0.1875 h 0.0039 c 0.04687,-0.08984 0.07031,-0.1875 0.07422,-0.28516 0,-0.10156 -0.02734,-0.19922 -0.07031,-0.28906 -0.09766,-0.20312 -0.18359,-0.40234 -0.26562,-0.59766 -0.08203,-0.19531 -0.15234,-0.40234 -0.22266,-0.61328 l -0.0039,0.0039 c -0.02734,-0.09375 -0.07422,-0.17969 -0.14062,-0.25391 -0.07422,-0.06641 -0.16016,-0.11719 -0.25391,-0.14844 l -0.19531,-0.0625 0.0039,0.0039 c -0.83203,-0.28125 -1.3906,-1.0664 -1.3828,-1.9453 v -1.5938 c 0,-0.42969 0.13281,-0.84766 0.37891,-1.1992 0.24609,-0.34766 0.59766,-0.60547 1.0039,-0.73828 l 0.19531,-0.0625 h -0.0039 c 0.09766,-0.03125 0.17969,-0.08203 0.25391,-0.15234 0.06641,-0.07031 0.11719,-0.15625 0.14062,-0.25 0.07031,-0.20312 0.14453,-0.41016 0.22266,-0.61328 0.08203,-0.20312 0.16797,-0.39453 0.26562,-0.58984 l 0.0039,-0.0039 c 0.04297,-0.08984 0.07031,-0.1875 0.07031,-0.28516 0,-0.10156 -0.02734,-0.19922 -0.07422,-0.28516 l -0.08984,-0.1875 h -0.0039 c -0.19531,-0.38672 -0.26172,-0.82031 -0.19531,-1.2461 0.06641,-0.42578 0.26172,-0.81641 0.55859,-1.1211 l 1.1016,-1.125 v -0.0039 c 0.60156,-0.62109 1.543,-0.77344 2.3164,-0.375 l 0.17969,0.09766 h -0.0039 c 0.08594,0.04688 0.17969,0.07422 0.27734,0.07813 0.09766,-0.0039 0.19531,-0.02734 0.28125,-0.07422 0.19922,-0.09766 0.39453,-0.19531 0.58203,-0.27344 0.19141,-0.07813 0.39453,-0.16406 0.59766,-0.23047 l 0.0039,0.0039 c 0.09375,-0.03125 0.17578,-0.08594 0.24609,-0.15234 0.06641,-0.07422 0.11719,-0.16016 0.14062,-0.25781 l 0.0625,-0.19531 c 0.12891,-0.40625 0.38281,-0.76562 0.72656,-1.0234 0.33984,-0.25391 0.75,-0.39062 1.1719,-0.39453 h 1.5547 c 0.42187,0.0039 0.83594,0.14062 1.1719,0.39062 0.34375,0.25781 0.59766,0.61719 0.72266,1.0273 l 0.0625,0.19531 v -0.0039 c 0.02734,0.09766 0.07813,0.1875 0.14844,0.25781 0.06641,0.07031 0.15234,0.12109 0.24609,0.15234 0.19922,0.06641 0.39844,0.14453 0.59766,0.23047 0.19922,0.08594 0.38281,0.17188 0.57812,0.27344 0.08594,0.04297 0.18359,0.07031 0.28125,0.07031 0.09766,0 0.19141,-0.02734 0.27734,-0.07813 z m 1.0508,1.9336 -0.07031,0.04297 c -0.38672,0.20312 -0.81641,0.30859 -1.25,0.30859 -0.43359,0.0039 -0.86328,-0.09766 -1.25,-0.29687 -0.13672,-0.07031 -0.29297,-0.14063 -0.44922,-0.21094 -0.16016,-0.07031 -0.30469,-0.125 -0.46484,-0.17969 -0.41406,-0.14062 -0.78906,-0.37891 -1.0898,-0.69531 -0.30469,-0.31641 -0.53125,-0.69922 -0.66016,-1.1211 l -0.01953,-0.07813 h -1.3125 l -0.02344,0.07813 h -0.0039 c -0.12891,0.42188 -0.35547,0.80469 -0.66016,1.1211 -0.30469,0.31641 -0.67969,0.55469 -1.0938,0.69922 -0.15234,0.05078 -0.30469,0.11719 -0.46094,0.17969 -0.15234,0.0625 -0.31641,0.14062 -0.45703,0.21094 v -0.0039 c -0.38281,0.20312 -0.8125,0.30469 -1.2461,0.30078 -0.4375,-0.0039 -0.86328,-0.10938 -1.25,-0.3125 l -0.07031,-0.04297 -0.92188,0.94922 0.03516,0.07422 c 0.19922,0.39844 0.30469,0.83203 0.30859,1.2773 0,0.44141 -0.10156,0.87891 -0.29297,1.2773 -0.07031,0.14844 -0.14062,0.30078 -0.21094,0.46094 -0.07031,0.16406 -0.11719,0.31641 -0.17188,0.47656 -0.13281,0.42188 -0.36719,0.80469 -0.67578,1.1172 -0.30859,0.3125 -0.68359,0.54688 -1.1016,0.68359 l -0.07031,0.01953 v 1.3398 l 0.07031,0.02734 c 0.41797,0.13672 0.79297,0.36719 1.1016,0.67578 0.30859,0.31641 0.53906,0.69922 0.67578,1.1211 0.05859,0.15625 0.11328,0.31641 0.17969,0.47266 0.06641,0.15625 0.13281,0.31641 0.21094,0.46484 0.39453,0.80859 0.38672,1.7539 -0.01563,2.5586 l -0.03516,0.07422 0.92188,0.94922 0.0625,-0.04687 c 0.38672,-0.19922 0.81641,-0.30859 1.25,-0.31641 0.43359,0 0.86328,0.10547 1.25,0.30469 0.14453,0.07031 0.29297,0.14062 0.45703,0.21094 0.16406,0.07031 0.30469,0.12109 0.46094,0.17969 h -0.0039 c 0.41406,0.14063 0.78906,0.37891 1.0938,0.69141 0.30469,0.32031 0.53125,0.70703 0.66016,1.125 l 0.02344,0.07422 h 1.3086 l 0.01953,-0.07422 h 0.0078 c 0.12891,-0.42188 0.35547,-0.80859 0.66406,-1.125 0.30469,-0.3125 0.67578,-0.55078 1.0898,-0.69141 0.16016,-0.05859 0.31641,-0.11719 0.46484,-0.17969 0.14844,-0.0625 0.31641,-0.14062 0.44922,-0.21094 0.78516,-0.40234 1.7188,-0.39844 2.4961,0.01562 l 0.07031,0.03516 0.92578,-0.94922 -0.04297,-0.07422 0.0039,0.0039 c -0.19531,-0.39453 -0.30078,-0.83203 -0.30078,-1.2773 -0.0039,-0.44141 0.09766,-0.88281 0.29297,-1.2773 0.06641,-0.14844 0.13672,-0.30078 0.20313,-0.46484 0.06641,-0.16797 0.125,-0.31641 0.17187,-0.47266 h 0.0039 c 0.13672,-0.42188 0.36719,-0.80859 0.67969,-1.1211 0.30469,-0.30859 0.67969,-0.54297 1.0938,-0.67578 l 0.07813,-0.02734 v -1.3398 l -0.07813,-0.01953 c -0.41406,-0.13672 -0.78906,-0.37109 -1.0938,-0.68359 -0.3125,-0.3125 -0.54688,-0.69531 -0.67969,-1.1133 -0.05078,-0.15625 -0.11328,-0.31641 -0.17188,-0.47656 -0.0625,-0.16016 -0.13672,-0.31641 -0.20312,-0.46094 l -0.0039,-0.0039 c -0.19531,-0.39453 -0.29687,-0.83203 -0.29297,-1.2773 0,-0.44141 0.10547,-0.87891 0.30078,-1.2734 l 0.04297,-0.07422 z m 7.5117,47.551 h 0.42188 c -0.03125,-0.29688 -0.10938,-0.59375 -0.23047,-0.86719 -0.17578,-0.37891 -0.42578,-0.71875 -0.74219,-0.99219 -1.3438,-1.1719 -2.4219,-2.6211 -3.1562,-4.25 -0.73828,-1.6367 -1.1172,-3.4102 -1.1172,-5.207 -0.01172,-3.2812 1.2617,-6.4375 3.5508,-8.7852 2.25,-2.3281 5.3438,-3.6445 8.582,-3.6445 3.2344,0 6.3281,1.3164 8.5781,3.6445 2.4062,2.4688 3.6953,5.8242 3.5547,9.2734 -0.13672,3.4492 -1.6836,6.6914 -4.2812,8.9609 -0.3125,0.277341 -0.5625,0.613281 -0.73828,0.992191 -0.12109,0.27344 -0.19922,0.570309 -0.22266,0.87109 h 0.41406 c 0.76953,0 1.5078,0.3125 2.0469,0.86719 1.1367,1.1641 1.1367,3.027299 0,4.1914 -0.53906,0.55469 -1.2773,0.87109 -2.0469,0.87109 h -0.51562 c -0.15234,0.77344 -0.52734,1.4883 -1.0781,2.0547 -0.3125,0.320309 -0.67578,0.58594 -1.0781,0.78516 -0.14453,1.011699 -0.60547,1.9531 -1.3203,2.6836 -0.86719,0.89844 -2.0664,1.4062 -3.3125,1.4062 -1.25,0 -2.4492,-0.507811 -3.3164,-1.4062 -0.71484,-0.73047 -1.1758,-1.668 -1.3203,-2.6797 -0.40234,-0.19922 -0.76953,-0.46484 -1.082,-0.78906 -0.55078,-0.5625 -0.92188,-1.2773 -1.0742,-2.0508 h -0.51562 c -0.76953,0 -1.5078,-0.31641 -2.043,-0.871091 -1.1328,-1.167999 -1.1328,-3.023399 0,-4.191399 0.53516,-0.55078 1.2734,-0.86328 2.043,-0.86719 z m 2.5898,0 h 1.3008 v -7.3516 c -0.13672,-0.11328 -0.26562,-0.23438 -0.39062,-0.36328 -2.1016,-2.1719 -2.1016,-5.6211 0,-7.7891 0.99609,-1.0312 2.3711,-1.6133 3.8047,-1.6133 1.4336,0 2.8047,0.58203 3.8008,1.6133 2.1055,2.168 2.1055,5.6172 0,7.7891 -0.12109,0.12891 -0.25391,0.25 -0.39062,0.36328 v 7.3516 h 1.3008 c 0.03516,-0.62109 0.18359,-1.2305 0.44141,-1.7969 0.30078,-0.66797 0.75,-1.2617 1.3086,-1.7383 1.1055,-0.96484 1.9883,-2.1602 2.5898,-3.5 1.7461,-3.8789 0.95312,-8.4336 -2.0039,-11.496 -1.8477,-1.9062 -4.3906,-2.9844 -7.0469,-2.9844 -2.6563,0 -5.1992,1.0781 -7.0469,2.9844 -1.9766,2.0352 -3.0312,4.7891 -2.9219,7.625 0.10938,2.832 1.3789,5.4961 3.5039,7.3711 1.043,0.89062 1.6758,2.168 1.75,3.5352 z m 9.2344,5.9297 -9.043,0.0039 c 0.08594,0.179691 0.20312,0.34375 0.34375,0.48438 0.32422,0.33594 0.77344,0.527341 1.2422,0.527341 h 5.875 c 0.46875,0 0.91406,-0.191411 1.2422,-0.527341 0.14062,-0.14062 0.25781,-0.304689 0.34375,-0.48438 z m 2.7773,-3.7148 -14.602,0.0039 c -0.19141,0 -0.37891,0.07813 -0.51562,0.21875 -0.28516,0.29297 -0.28516,0.76172 0,1.0586 0.13672,0.14062 0.32031,0.21875 0.51562,0.21875 h 14.605 c 0.19531,0 0.38281,-0.07813 0.51562,-0.21875 0.28906,-0.29688 0.28906,-0.76562 0,-1.0586 -0.13281,-0.14062 -0.32031,-0.21875 -0.51562,-0.21875 z m -6.0547,-8.4609 0.0039,0.0039 c -0.82031,0.19531 -1.6758,0.19531 -2.4961,0 v 6.2422 h 2.4961 z m 1.0234,-7.6836 0.0039,0.0039 c -0.59375,-0.61719 -1.4141,-0.96484 -2.2695,-0.96484 -0.85937,0 -1.6758,0.34766 -2.2734,0.96484 -1.2539,1.293 -1.2539,3.3555 0,4.6523 0.16016,0.16016 0.33594,0.308591 0.52734,0.433591 l 0.0078,0.0039 c 1.0547,0.699219 2.4258,0.699219 3.4805,0 l 0.01172,-0.0039 c 0.19141,-0.125 0.36719,-0.27344 0.52734,-0.433591 1.2539,-1.2969 1.2539,-3.3594 0,-4.652299 z m -0.48438,23.816 0.0039,0.0039 c 0.20312,-0.21094 0.36719,-0.45312 0.49219,-0.71875 h -4.5547 c 0.12109,0.26562 0.28906,0.50781 0.49219,0.71875 0.46875,0.48047 1.1133,0.75391 1.7852,0.75391 0.67188,0 1.3164,-0.273439 1.7852,-0.75391 z m -9.2773,-49.32 c -0.61328,0 -1.1094,-0.49609 -1.1094,-1.1094 0,-0.60937 0.49609,-1.1055 1.1094,-1.1055 h 7.4961 c 0.28906,0 0.56641,0.12109 0.76953,0.32812 0.20312,0.20703 0.31641,0.48438 0.31641,0.77734 v 13.34 c 0.0078,0.29297 -0.10156,0.57812 -0.30859,0.78906 -0.20312,0.21094 -0.48438,0.32812 -0.77734,0.32812 -0.29297,0 -0.57422,-0.11719 -0.78125,-0.32812 -0.20312,-0.21094 -0.3125,-0.49609 -0.30469,-0.78906 v -12.23 z m 6.4102,55.578 c -0.0078,-0.292969 0.10156,-0.57812 0.30469,-0.78906 0.20703,-0.21094 0.48828,-0.32812 0.78125,-0.32812 0.29297,0 0.57422,0.11719 0.77734,0.32812 0.20703,0.21094 0.31641,0.49609 0.30859,0.78906 v 13.402 c 0.0039,0.60547 -0.48047,1.101601 -1.0859,1.1094 h -0.08984 l -7.1562,0.01953 h -0.0039 c -0.60937,0 -1.1055,-0.492189 -1.1055,-1.1016 0,-0.61328 0.49609,-1.1055 1.1055,-1.1055 l 6.168,-0.01563 z m -32.762,12.391001 c 0.59375,0.01953 1.0664,0.50781 1.0664,1.1016 0,0.59766 -0.47266,1.0859 -1.0664,1.1055 l -7.6133,0.01953 h -0.0039 c -0.28906,-0.0039 -0.5625,-0.12109 -0.76562,-0.32812 -0.19922,-0.21094 -0.3125,-0.48828 -0.30469,-0.77734 h -0.0039 l -0.0039,-8.0156 c 0,-0.59766 0.48438,-1.082 1.082,-1.082 0.59762,0 1.082,0.48438 1.082,1.082 v 6.9102 z"
     id="path1"
     style="fill:#ffffff;fill-opacity:1" />
</svg>
